<?xml version="1.0" encoding="UTF-8"?>
<svg width="700pt" height="700pt" version="1.1" viewBox="0 0 700 700" xmlns="http://www.w3.org/2000/svg" xmlns:xlink="http://www.w3.org/1999/xlink">
 <g>
  <path d="m350 490-32.992-29.762c-117.16-107.57-194.51-177.38-194.51-264.35 0-70.957 54.598-125.89 125.12-125.89 39.812 0 77.348 18.312 102.38 48.066 25.027-29.754 62.562-48.066 102.38-48.066 70.527 0 125.12 54.93 125.12 125.89 0 86.969-77.348 156.79-194.51 264.35z"/>
  <use x="70" y="576.40625" xlink:href="#y"/>
  <use x="74.011719" y="576.40625" xlink:href="#c"/>
  <use x="76.710938" y="576.40625" xlink:href="#a"/>
  <use x="80.417969" y="576.40625" xlink:href="#l"/>
  <use x="84.109375" y="576.40625" xlink:href="#b"/>
  <use x="86.722656" y="576.40625" xlink:href="#a"/>
  <use x="90.433594" y="576.40625" xlink:href="#k"/>
  <use x="96.25" y="576.40625" xlink:href="#j"/>
  <use x="100.167969" y="576.40625" xlink:href="#i"/>
  <use x="105.636719" y="576.40625" xlink:href="#h"/>
  <use x="109.804688" y="576.40625" xlink:href="#x"/>
  <use x="111.679687" y="576.40625" xlink:href="#g"/>
  <use x="115.570312" y="576.40625" xlink:href="#a"/>
  <use x="119.28125" y="576.40625" xlink:href="#b"/>
  <use x="121.894531" y="576.40625" xlink:href="#f"/>
  <use x="123.769531" y="576.40625" xlink:href="#w"/>
  <use x="129.585938" y="576.40625" xlink:href="#v"/>
  <use x="134.128906" y="576.40625" xlink:href="#a"/>
  <use x="137.835938" y="576.40625" xlink:href="#u"/>
  <use x="141.089844" y="576.40625" xlink:href="#f"/>
  <use x="142.964844" y="576.40625" xlink:href="#t"/>
  <use x="146.878906" y="576.40625" xlink:href="#e"/>
  <use x="70" y="581.875" xlink:href="#s"/>
  <use x="72.378906" y="581.875" xlink:href="#c"/>
  <use x="75.078125" y="581.875" xlink:href="#d"/>
  <use x="78.832031" y="581.875" xlink:href="#r"/>
  <use x="86.4375" y="581.875" xlink:href="#b"/>
  <use x="89.050781" y="581.875" xlink:href="#q"/>
  <use x="92.941406" y="581.875" xlink:href="#a"/>
  <use x="98.554688" y="581.875" xlink:href="#p"/>
  <use x="103.132812" y="581.875" xlink:href="#d"/>
  <use x="106.890625" y="581.875" xlink:href="#g"/>
  <use x="110.785156" y="581.875" xlink:href="#e"/>
  <use x="116.582031" y="581.875" xlink:href="#o"/>
  <use x="120.589844" y="581.875" xlink:href="#c"/>
  <use x="123.285156" y="581.875" xlink:href="#d"/>
  <use x="127.042969" y="581.875" xlink:href="#n"/>
  <use x="128.917969" y="581.875" xlink:href="#a"/>
  <use x="132.625" y="581.875" xlink:href="#m"/>
  <use x="135.867188" y="581.875" xlink:href="#b"/>
 </g>

 <style> 
 svg {
  fill: #fff;
 }
 </style>
</svg>
